<svg width="57" height="24" viewBox="0 0 57 24" fill="none" xmlns="http://www.w3.org/2000/svg">
<rect x="0.3" y="0.3" width="56.4" height="23.4" rx="1.7" fill="white"/>
<g clip-path="url(#clip0_102_310)">
<path d="M11 7.83333C8.69998 7.83333 6.83331 9.7 6.83331 12C6.83331 14.3 8.69998 16.1667 11 16.1667C13.3 16.1667 15.1666 14.3 15.1666 12C15.1666 9.7 13.3 7.83333 11 7.83333ZM13.0833 12.4167H11.4166V14.0833H10.5833V12.4167H8.91665V11.5833H10.5833V9.91666H11.4166V11.5833H13.0833V12.4167Z" fill="#C0C0C0"/>
</g>
<path d="M21.5544 9.511C21.2484 9.511 20.9694 9.538 20.7174 9.592C20.4654 9.646 20.2464 9.724 20.0604 9.826C19.8804 9.928 19.7394 10.051 19.6374 10.195C19.5414 10.333 19.4934 10.492 19.4934 10.672C19.4934 10.852 19.5414 11.014 19.6374 11.158C19.7394 11.302 19.8804 11.425 20.0604 11.527C20.2464 11.629 20.4654 11.707 20.7174 11.761C20.9694 11.815 21.2484 11.842 21.5544 11.842C21.8604 11.842 22.1394 11.815 22.3914 11.761C22.6494 11.707 22.8684 11.629 23.0484 11.527C23.2344 11.425 23.3754 11.302 23.4714 11.158C23.5734 11.014 23.6244 10.852 23.6244 10.672C23.6244 10.492 23.5734 10.333 23.4714 10.195C23.3754 10.051 23.2344 9.928 23.0484 9.826C22.8684 9.724 22.6494 9.646 22.3914 9.592C22.1394 9.538 21.8604 9.511 21.5544 9.511ZM21.5544 12.436C21.1344 12.436 20.7504 12.397 20.4024 12.319C20.0604 12.235 19.7634 12.118 19.5114 11.968C19.2654 11.812 19.0734 11.626 18.9354 11.41C18.8034 11.188 18.7374 10.942 18.7374 10.672C18.7374 10.402 18.8034 10.159 18.9354 9.943C19.0734 9.727 19.2654 9.544 19.5114 9.394C19.7634 9.238 20.0604 9.121 20.4024 9.043C20.7504 8.959 21.1344 8.917 21.5544 8.917C21.9744 8.917 22.3584 8.959 22.7064 9.043C23.0544 9.121 23.3514 9.238 23.5974 9.394C23.8434 9.544 24.0354 9.727 24.1734 9.943C24.3114 10.159 24.3804 10.402 24.3804 10.672C24.3804 10.942 24.3114 11.188 24.1734 11.41C24.0354 11.626 23.8434 11.812 23.5974 11.968C23.3514 12.118 23.0544 12.235 22.7064 12.319C22.3584 12.397 21.9744 12.436 21.5544 12.436ZM25.2264 13.795H23.3184V16.666H22.5714V13.795H20.5464V16.666H19.7994V13.795H17.9184V13.192H25.2264V13.795ZM28.9067 10.744C28.9067 11.098 28.9607 11.452 29.0687 11.806C29.1767 12.154 29.3237 12.484 29.5097 12.796C29.6957 13.102 29.9117 13.378 30.1577 13.624C30.4097 13.864 30.6767 14.056 30.9587 14.2L30.4997 14.785C30.2837 14.671 30.0767 14.53 29.8787 14.362C29.6867 14.188 29.5067 13.993 29.3387 13.777C29.1707 13.561 29.0177 13.327 28.8797 13.075C28.7477 12.817 28.6367 12.55 28.5467 12.274C28.3727 12.868 28.1087 13.402 27.7547 13.876C27.4007 14.344 26.9957 14.701 26.5397 14.947L26.0987 14.353C26.3867 14.203 26.6567 14.002 26.9087 13.75C27.1667 13.492 27.3887 13.201 27.5747 12.877C27.7607 12.553 27.9077 12.208 28.0157 11.842C28.1237 11.476 28.1777 11.11 28.1777 10.744V9.295H28.9067V10.744ZM33.7397 12.481H32.4077V16.666H31.6697V8.602H32.4077V11.869H33.7397V12.481ZM40.111 9.565H36.133V11.212H40.111V9.565ZM40.84 11.806H35.413V8.971H40.84V11.806ZM36.133 15.883H40.975V16.486H35.395V14.182H36.133V15.883ZM41.794 12.724V13.318H38.554V14.947H37.816V13.318H34.459V12.724H41.794ZM45.1233 10.87C45.1233 11.224 45.1593 11.572 45.2313 11.914C45.3093 12.256 45.4203 12.58 45.5643 12.886C45.7083 13.186 45.8853 13.459 46.0953 13.705C46.3113 13.951 46.5603 14.152 46.8423 14.308L46.3923 14.848C45.9963 14.614 45.6603 14.293 45.3843 13.885C45.1143 13.471 44.9103 13.006 44.7723 12.49C44.6343 13.048 44.4213 13.552 44.1333 14.002C43.8513 14.446 43.5093 14.794 43.1073 15.046L42.6573 14.497C42.9393 14.329 43.1883 14.116 43.4043 13.858C43.6263 13.594 43.8093 13.303 43.9533 12.985C44.1033 12.667 44.2173 12.328 44.2953 11.968C44.3733 11.608 44.4123 11.242 44.4123 10.87V10.141H42.8823V9.538H46.5633V10.141H45.1233V10.87ZM47.2833 8.773H47.9853V16.243H47.2833V12.094H45.9513V11.491H47.2833V8.773ZM49.6143 8.584V16.657H48.9033V8.584H49.6143Z" fill="#959595"/>
<rect x="0.3" y="0.3" width="56.4" height="23.4" rx="1.7" stroke="#E0E0E0" stroke-width="0.6"/>
<defs>
<clipPath id="clip0_102_310">
<rect width="10" height="10" fill="white" transform="translate(6 7)"/>
</clipPath>
</defs>
</svg>
